<?xml version="1.0" encoding="utf-8"?>
<!-- Generator: Adobe Illustrator 25.1.0, SVG Export Plug-In . SVG Version: 6.00 Build 0)  -->
<svg version="1.1" id="Layer_1" xmlns="http://www.w3.org/2000/svg" xmlns:xlink="http://www.w3.org/1999/xlink" x="0px" y="0px"
	 viewBox="0 0 26.4 24.7" style="enable-background:new 0 0 26.4 24.7;" xml:space="preserve">
<style type="text/css">
	.st0{fill:#FFFFFF;}
	.st1{fill:#00d4ff;stroke:#96f;stroke-linecap:round;stroke-linejoin:round;stroke-miterlimit:10;}
	.st2{fill:#FFFFFF;stroke:#96f;stroke-linecap:round;stroke-linejoin:round;stroke-miterlimit:10;}
	.st3{fill:#00d4ff;}
	.st4{fill:#96f;}
</style>
<polygon class="st0" points="24.3,16.2 24.5,17.8 24.6,18.2 15.8,23.2 15.7,22.9 16.2,20.9 "/>
<polygon class="st0" points="24.3,8.5 24.5,10.1 24.6,10.5 15.8,15.4 15.7,15.2 16.2,13.2 "/>
<polygon class="st0" points="24.2,12.3 24.3,13.9 24.5,14.4 15.7,19.3 15.6,19 16.1,17 "/>
<path class="st1" d="M1.3,6.7l14.6,6c0,0-0.8,1.8-0.1,2.8l8.8-4.9l-0.1-0.5l0.9,0.5c0,0,0.2,0.3,0,0.4s-9.5,5.2-9.5,5.2
	s-0.6,2.2-0.2,3.2l8.8-4.9l-0.1-0.5l0.9,0.5c0,0,0.2,0.1,0,0.4C25.1,15,15.9,20,15.9,20s-0.7,2.3-0.2,3.2l8.9-4.9l-0.1-0.4l0.9,0.4
	c0,0,0.2,0.4-0.2,0.6c-0.5,0.2-9.1,5-9.1,5l-14.7-6c0,0-1.1-2.3,0-3.9c0,0-1.1-2.1,0-3.8C1.3,10.2,0.4,8,1.3,6.7z"/>
<path class="st2" d="M11.6,1.3l13.6,5.5c0,0,0.6,0.2,0.1,0.6s-9.4,5.3-9.4,5.3l-14.6-6l9.4-5.3C10.7,1.4,11.1,1.1,11.6,1.3z"/>
<g>
	<g>
		<path class="st3" d="M10.7,6c0,0-1.4,0.1-1.8-0.6s0.9-1.1,1.8-0.9C11.5,4.6,12,4.9,12,5.1c0,0,0.8-0.6,1.1-0.1c0,0,0.1,0-0.5,0.5
			c0,0,2.3,0.8,2.8,0.7c0.5-0.1,2-0.7,2,0c0,0,1.7-0.4,1,0.5s-3,2.3-4.1,2.1c0,0-0.4-0.1-0.2-0.6c0,0-1.2,0.4-0.6-0.7
			c0,0,0.8-0.5-1.9-1.3c0,0-0.8,0.5-1.2,0.2C10.1,6.2,10.7,6,10.7,6z"/>
	</g>
</g>
<polyline class="st4" points="1.1,9.7 15.9,16.1 1.3,10.3 "/>
<polyline class="st4" points="1.1,13.5 15.9,20 1.3,14.2 "/>
</svg>
