<?xml version="1.0" encoding="utf-8"?>
<!-- Generator: Adobe Illustrator 25.1.0, SVG Export Plug-In . SVG Version: 6.00 Build 0)  -->
<svg version="1.1" id="Layer_1" xmlns="http://www.w3.org/2000/svg" xmlns:xlink="http://www.w3.org/1999/xlink" x="0px" y="0px"
	 viewBox="0 0 26 40.9" style="enable-background:new 0 0 26 40.9;" xml:space="preserve">
<style type="text/css">
	.st0{fill:none;stroke:#00d4ff;stroke-width:2;stroke-linecap:round;stroke-linejoin:round;stroke-miterlimit:10;}
	.st1{fill:none;stroke:#96f;stroke-width:2;stroke-linecap:round;stroke-linejoin:round;stroke-miterlimit:10;}
	.st2{fill:none;stroke:#00d4ff;stroke-linecap:round;stroke-linejoin:round;stroke-miterlimit:10;}
	.st3{fill:#00d4ff;}
</style>
<g>
	<path class="st0" d="M2.6,27c0,0-4.2-13.1,10-19.7c0,0,1.3-5.9,2.5-6.3c0,0,3.3,3.2,2.1,5.5c0,0,0.4-1.9,1.5-2.2
		c1-0.3,2.4-2.8,2.4-2.8s1.6,5.2-1.4,6.3c0,0,4.6,8.2,4.2,13.4c0,0,1.9,1,0.5,2.9c-1.4,2-3,4.8-8.2-3.2c0,0-1.9-2.5-3.7-2.9
		s-1-3.4-1-3.4"/>
	<path class="st1" d="M5.2,25.5c0,0-1.8-0.2-1.6-0.5c0.1-0.3,0.5-1.3,1.4-1.3c0.9-0.1-0.1-0.6-0.6-1.8C3.8,20.7,4,18,7.2,18
		s4.2,5.1,1.3,5.6c0,0,2.4,0.6,2.1,1.2c-0.3,0.6-1.8,0.8-1.8,0.8l0.7,5.8c0,0,2,2.6,2,3.4c0,0.8-0.8,1.2-1.9,1.6s3.3-1.2,2.9,1.7
		c-0.3,3-10.2,1.6-11.1,0.8c-0.9-0.8-1.4-4,2.6-2.5c0,0-4.3-0.6-1.2-3.4C3.1,33,4.4,33.2,5.2,25.5z"/>
	<path class="st2" d="M16.1,12.5c0,0,1.9,1.9,3.1,2.4C19.2,14.9,16.2,16.9,16.1,12.5z"/>
	<circle class="st3" cx="17.3" cy="14.5" r="0.7"/>
</g>
</svg>
