<?xml version="1.0" encoding="utf-8"?>
<!-- Generator: Adobe Illustrator 25.1.0, SVG Export Plug-In . SVG Version: 6.00 Build 0)  -->
<svg version="1.1" id="Layer_1" xmlns="http://www.w3.org/2000/svg" xmlns:xlink="http://www.w3.org/1999/xlink" x="0px" y="0px"
	 viewBox="0 0 11.7 18.1" style="enable-background:new 0 0 11.7 18.1;" xml:space="preserve">
<style type="text/css">
	.st0{fill:#96f;}
	.st1{fill:#44C6EC;}
	.st2{fill:#FFFFFF;}
</style>
<g transform="translate(-98.2 -43)">
	<path class="st0" d="M109,57.8c0.3-0.3,0.3-0.8,0.1-1.2c-0.4-0.9-2.9-1-3.1-1.8c-0.2-0.6-0.4-2.9-0.5-4.1c1,0,1.7-0.1,1.7-0.2
		c0.2-0.3,0.3-0.9,0.3-1.1c0,0,0-0.1-0.1-0.1c-0.3-0.2-1.3-0.8-1.7-1c1.3-0.9,1.6-2.7,0.7-4c-0.5-0.8-1.4-1.2-2.4-1.2l-1.4,7.7
		c0,0.1,0,0.3,0,0.4c0,0,0.9,0.8,0.9,1.2c-0.1,1.6-0.6,3.6-0.7,4c-0.2,0.8-3.8,0.2-3.8,0.2c-0.2,0.4-0.2,0.8,0.1,1.2
		c0,0-0.9,0.3-0.9,1.2c0,0.3,0.1,0.7,0.4,1c0.4,0.3,1,0.6,1.8,0.8c0.6,0.2,2.1,0.4,3.7,0.4c1.6,0,3.1-0.3,3.7-0.4
		c0.8-0.2,1.4-0.5,1.8-0.8c0.3-0.2,0.4-0.6,0.4-1C109.9,58.1,109,57.8,109,57.8z"/>
	<path class="st1" d="M104.1,51.7c-0.2-0.1-1.5-0.6-1.5-0.6c-0.1,1.2-0.3,3.1-0.5,3.6c-0.2,0.8-2.7,0.9-3.1,1.8c-0.2,0.4,0.7,1,3,1
		c2.1,0,2.3-2.8,2.7-5.1C104.7,52.1,104.3,51.8,104.1,51.7z M105.2,49.3c-0.5-0.4-0.9-0.8-1.3-1c0.4-0.1,2.2-0.7,2.2-2.9
		c0-1.8-1.1-2.3-1.9-2.4h-0.1c-1.6,0-2.9,1.3-2.9,2.9c0,0.9,0.5,1.8,1.2,2.4c-0.4,0.2-1.5,0.8-1.7,1c-0.1,0-0.1,0.1-0.1,0.1
		c0,0.3,0.1,0.8,0.3,1.1c0,0.1,1.3,0.2,3,0.2h0.3c0.3,0,0.5,0,0.7,0c0.2,0,0.3-1.1,0.3-1.3h0C105.3,49.4,105.2,49.3,105.2,49.3
		L105.2,49.3z"/>
	<path class="st2" d="M103.6,43.7c1.3,0.2-0.6,1.7-1.2,1.6C101.9,45.2,102.4,43.5,103.6,43.7z"/>
	<path class="st1" d="M103.1,59.3c-0.8-0.1-3.4-0.6-4-1.5c-0.1,0.1-0.5,0.2-0.7,0.5c0,1,3.2,1.5,4.7,1.3
		C103.6,59.5,103.3,59.4,103.1,59.3L103.1,59.3z"/>
</g>
</svg>
