<?xml version="1.0" encoding="utf-8"?>
<!-- Generator: Adobe Illustrator 25.1.0, SVG Export Plug-In . SVG Version: 6.00 Build 0)  -->
<svg version="1.1" id="Layer_1" xmlns="http://www.w3.org/2000/svg" xmlns:xlink="http://www.w3.org/1999/xlink" x="0px" y="0px"
	 viewBox="0 0 25.1 17.4" style="enable-background:new 0 0 25.1 17.4;" xml:space="preserve">
<style type="text/css">
	.st0{fill:#96f;}
	.st1{fill:#FFFFFF;}
</style>
<path class="st0" d="M24.6,2.7c-0.3-1.1-1.1-1.9-2.2-2.2C20.4,0,12.5,0,12.5,0S4.8,0,2.9,0.5C1.8,0.8,0.8,1.6,0.5,2.7
	C0,4.7,0,8.7,0,8.7s0,4,0.5,6c0.3,1.1,1.3,1.9,2.4,2.2c2,0.5,9.7,0.5,9.7,0.5s7.7,0,9.7-0.5c1.1-0.3,2.1-1.2,2.4-2.2
	c0.5-1.9,0.5-6,0.5-6S25.1,4.7,24.6,2.7z"/>
<polygon class="st1" points="10.1,12.5 16.4,8.7 10.1,4.8 "/>
</svg>
